<?xml version="1.0" encoding="utf-8"?>
<!-- Generator: Adobe Illustrator 22.1.0, SVG Export Plug-In . SVG Version: 6.00 Build 0)  -->
<svg version="1.1" id="Livello_1" xmlns="http://www.w3.org/2000/svg" xmlns:xlink="http://www.w3.org/1999/xlink" x="0px" y="0px"
	 viewBox="0 0 1000 1000" style="enable-background:new 0 0 1000 1000;" xml:space="preserve">
<style type="text/css">
	.st0{fill:#FF0000;stroke:#000000;stroke-width:0.9568;stroke-miterlimit:10;}
	.st1{fill:#FFFFFF;}
</style>
<g>
	<circle class="st0" cx="500" cy="500" r="478.4"/>
	<g>
		<path class="st1" d="M485.5,434.7c0,78.1-36.8,117.9-110.3,119.3h-10.7l44.2,42.1c7.1,6.7,12.3,13.8,15.4,21
			c3.2,7.3,4.8,14.1,4.8,20.5c0,6-1.1,12.3-3.2,18.6c-2.1,6.4-5.3,12.3-9.6,17.6c-4.3,5.3-9.4,9.7-15.4,13c-6,3.4-12.8,5.1-20.2,5.1
			s-15.2-1.5-23.2-4.5s-15.5-8.1-22.6-15.2l-124.1-122c-4.3-3.9-8-7.5-11.2-10.9s-5.8-6.9-7.7-10.7c-2-3.7-3.5-7.7-4.5-12
			c-1.1-4.3-1.6-9.4-1.6-15.4c0-15.3,4.3-27.5,12.8-36.8c8.5-9.2,21.8-13.8,39.9-13.8h136.4c13.5,0,20.2-5.3,20.2-16
			s-6.7-16-20.2-16H235.2c-16.3,0-28.9-4.3-37.6-13s-13-22.1-13-40.2c0-33.7,16.7-50.6,50.1-50.6h134.2
			C446.6,314.8,485.5,354.8,485.5,434.7z"/>
		<path class="st1" d="M789.6,570.5c0,79.5-38.9,119.3-116.6,119.3H570.2c-8.5,0-16-1.5-22.4-4.5s-11.7-6.9-16-11.7
			s-7.5-10.3-9.6-16.5s-3.2-12.7-3.2-19.4c0-6.4,1.1-12.7,3.2-18.9c2.1-6.2,5.4-11.7,9.9-16.5c4.4-4.8,9.9-8.7,16.5-11.7
			s14.1-4.5,22.6-4.5h107.6c7.1,0,12.3-2,15.7-6.1s5.1-8.4,5.1-13c0-5-1.7-9.6-5.1-13.8c-3.4-4.3-8.6-6.4-15.7-6.4h-53.3
			c-36.6,0-64.1-8.9-82.6-26.6c-18.5-17.8-27.7-46-27.7-84.7c0-80.2,39.2-120.4,117.7-120.4H716c8.9,0,16.7,1.5,23.4,4.5
			s12.4,6.9,17,11.7c4.6,4.8,8.1,10.3,10.4,16.5c2.3,6.2,3.5,12.5,3.5,18.9s-1.2,12.8-3.5,19.2c-2.3,6.4-5.8,12.1-10.4,17
			c-4.6,5-10.4,9-17.3,12c-6.9,3-14.8,4.5-23.7,4.5h-89.5c-7.1,0-12.3,2-15.4,6.1c-3.2,4.1-4.8,8.6-4.8,13.6c0,4.6,1.6,9,4.8,13
			c3.2,4.1,8.3,6.1,15.4,6.1h53.3c37.6,0,65.4,9.1,83.4,27.2C780.7,503.4,789.6,531.8,789.6,570.5z"/>
	</g>
</g>
</svg>
