<?xml version="1.0" encoding="utf-8"?>
<!-- Generator: Adobe Illustrator 22.1.0, SVG Export Plug-In . SVG Version: 6.00 Build 0)  -->
<svg version="1.1" id="Livello_1" xmlns="http://www.w3.org/2000/svg" xmlns:xlink="http://www.w3.org/1999/xlink" x="0px" y="0px"
	 viewBox="0 0 3000 1000" style="enable-background:new 0 0 3000 1000;" xml:space="preserve">
<style type="text/css">
	.st0{fill:#FF0000;stroke:#000000;stroke-width:0.5;stroke-miterlimit:10;}
	.st1{fill:#FFFFFF;}
</style>
<g>
	<circle class="st0" cx="276" cy="500" r="250"/>
	<g>
		<path class="st1" d="M268.4,465.9c0,40.8-19.2,61.6-57.6,62.3h-5.6l23.1,22c3.7,3.5,6.4,7.2,8,11c1.7,3.8,2.5,7.4,2.5,10.7
			c0,3.1-0.6,6.4-1.7,9.7c-1.1,3.3-2.8,6.4-5,9.2c-2.2,2.8-4.9,5.1-8,6.8c-3.1,1.8-6.7,2.7-10.6,2.7c-3.9,0-7.9-0.8-12.1-2.4
			s-8.1-4.2-11.8-7.9l-64.9-63.8c-2.2-2-4.2-3.9-5.9-5.7c-1.7-1.8-3-3.6-4-5.6c-1-1.9-1.8-4-2.4-6.3c-0.6-2.2-0.8-4.9-0.8-8
			c0-8,2.2-14.4,6.7-19.2c4.4-4.8,11.4-7.2,20.9-7.2h71.3c7.1,0,10.6-2.8,10.6-8.4s-3.5-8.4-10.6-8.4h-72.9
			c-8.5,0-15.1-2.2-19.6-6.8s-6.8-11.5-6.8-21c0-17.6,8.7-26.4,26.2-26.4h70.1C248.1,403.2,268.4,424.1,268.4,465.9z"/>
		<path class="st1" d="M427.3,536.8c0,41.5-20.3,62.3-60.9,62.3h-53.7c-4.4,0-8.4-0.8-11.7-2.4c-3.3-1.6-6.1-3.6-8.4-6.1
			s-3.9-5.4-5-8.6c-1.1-3.2-1.7-6.6-1.7-10.1c0-3.3,0.6-6.6,1.7-9.9c1.1-3.2,2.8-6.1,5.2-8.6c2.3-2.5,5.2-4.5,8.6-6.1
			c3.4-1.6,7.4-2.4,11.8-2.4h56.2c3.7,0,6.4-1,8.2-3.2c1.8-2.1,2.7-4.4,2.7-6.8c0-2.6-0.9-5-2.7-7.2c-1.8-2.2-4.5-3.3-8.2-3.3h-27.9
			c-19.1,0-33.5-4.7-43.2-13.9c-9.7-9.3-14.5-24-14.5-44.3c0-41.9,20.5-62.9,61.5-62.9h43.4c4.7,0,8.7,0.8,12.2,2.4s6.5,3.6,8.9,6.1
			c2.4,2.5,4.2,5.4,5.4,8.6c1.2,3.2,1.8,6.5,1.8,9.9c0,3.3-0.6,6.7-1.8,10c-1.2,3.3-3,6.3-5.4,8.9c-2.4,2.6-5.4,4.7-9,6.3
			c-3.6,1.6-7.7,2.4-12.4,2.4h-46.8c-3.7,0-6.4,1-8,3.2c-1.7,2.1-2.5,4.5-2.5,7.1c0,2.4,0.8,4.7,2.5,6.8c1.7,2.1,4.3,3.2,8,3.2h27.9
			c19.6,0,34.2,4.8,43.6,14.2C422.7,501.8,427.3,516.6,427.3,536.8z"/>
	</g>
</g>
<g>
	<path d="M556.8,304.5h125.5c24.4,0,43.1,1.1,56,3.4c13,2.2,26.1,8.3,39.4,18.1c13.3,9.9,23.7,23.3,31.2,40.4
		c7.5,17.1,11.3,36.2,11.3,57.5c0,49.9-18.7,85.1-56.2,105.4L837.5,704h-95.6l-53.4-158h-43.9v158h-87.8V304.5z M644.6,369.2v112.1
		h38.6c34.3,0,51.5-19.2,51.5-57.7c0-13.3-2.5-24.1-7.6-32.6c-5.1-8.5-11-14.2-17.7-17.3c-6.7-3-16.6-4.5-29.7-4.5H644.6z"/>
	<path d="M1075.4,570H920.6v16.3c0,26.4,3.6,44.1,10.8,53.1c7.2,8.9,16.6,13.4,28.3,13.4c25.1,0,39.2-16.8,42.3-50.3l73.5,4.7
		c-13.1,68.7-52.1,103-117.2,103c-40.1,0-70.6-13.6-91.5-40.7c-20.9-27.1-31.3-63.4-31.3-108.9c0-51.3,11.1-90.5,33.2-117.5
		c22.1-27,51.8-40.5,89-40.5c33.5,0,61.5,12,84,35.8C1064.2,462.3,1075.4,506.2,1075.4,570z M997.6,522.3c0.2-3.5,0.3-6.2,0.3-8.2
		c0-38-12.8-57.1-38.5-57.1c-25.3,0-38,21.8-38.2,65.3H997.6z"/>
	<path d="M1244.3,304.5h81.1V704h-76.7v-48.9c-12.5,35.3-34.9,53-67.2,53c-31.7,0-55.4-13.8-71-41.6
		c-15.6-27.7-23.4-64.1-23.4-109.2c0-51.3,8.9-89.6,26.8-115c17.9-25.4,41.7-38,71.6-38c27.5,0,47.1,10.5,58.8,31.6V304.5z
		 M1244.3,532.1c0-29-3.1-48.5-9.3-58.3c-6.2-9.8-15.1-14.8-26.9-14.8c-13.9,0-23.4,6.8-28.4,20.5c-5,13.6-7.5,41.9-7.5,84.7
		c0,31.9,2.7,54.3,8.2,67.2c5.5,12.9,14.5,19.3,27,19.3c10.6,0,19.3-4.3,26.3-13c7-8.7,10.4-26.4,10.4-53.3V532.1z"/>
	<path d="M1613.3,391.5l-72.6,27.8c-10.3-33-29.3-49.5-56.8-49.5c-12.9,0-23.1,3.7-30.6,11c-7.5,7.3-11.3,15.9-11.3,25.6
		c0,11.3,4.4,20.3,13.3,27.1c8.9,6.7,27.5,15.6,55.7,26.5c25.8,9.6,46,19,60.7,28.4c14.7,9.4,26.6,22.1,35.7,38.2
		c9.1,16.1,13.6,34.8,13.6,56c0,37.3-12.8,67.8-38.5,91.7c-25.7,23.9-60,35.8-103.2,35.8c-72.4,0-118.6-36.6-138.7-109.7l76.7-21.9
		c9.4,40.2,30.7,60.3,64.1,60.3c15.2,0,27.6-4,37-11.9c9.5-7.9,14.2-18.3,14.2-31.2c0-9.8-3.3-18.5-10-26.2
		c-6.6-7.7-21.9-15.8-45.7-24.4c-30.6-10.9-53.5-20.8-68.5-29.7c-15-8.9-27.4-21.6-37.2-38c-9.8-16.5-14.6-35.3-14.6-56.3
		c0-35.9,11.6-65.3,34.7-88.2c23.1-22.9,53.7-34.4,91.7-34.4C1552.8,298.4,1596.2,329.4,1613.3,391.5z"/>
	<path d="M1864.7,517.3l-76.7,2.9c-1.2-18.1-4.1-31.8-8.8-41.1c-4.7-9.3-12.6-13.9-23.7-13.9c-27.7,0-41.6,29.1-41.6,87.2
		c0,33.8,3.4,57.4,10.1,70.8c6.7,13.5,16.7,20.2,30,20.2c20.7,0,32-18.2,33.9-54.7l76.7,5c-6.8,77.7-45.4,116.5-115.7,116.5
		c-38,0-67.1-12.8-87.2-38.5c-20.2-25.7-30.2-63.8-30.2-114.6c0-50.3,10.6-88.7,31.7-115s50.8-39.5,89-39.5
		C1821.2,402.6,1858.7,440.8,1864.7,517.3z"/>
	<path d="M1885.5,408.4h72.6v71.4c13.1-50.1,36.4-75.2,69.9-75.2c4.1,0,8.8,0.5,14,1.5v80.5c-6-0.8-10.6-1.2-13.8-1.2
		c-40.2,0-60.3,30.4-60.3,91.3V704h-82.5V408.4z"/>
	<path d="M2127.3,502.4l-78.1-7.6c3.7-29.7,16.3-52.5,37.9-68.5c21.6-16,48.7-24,81.5-24c27.7,0,49.9,5.3,66.7,15.9
		c16.8,10.6,27.4,23,31.8,37c4.4,14,6.6,35.8,6.6,65.3v117.9c0,36.7,1.7,58.5,5,65.6h-76.7c-2.7-8-4.1-23.1-4.1-45.4
		c-18.1,34.3-45.1,51.5-80.9,51.5c-23,0-41.7-6.9-56.1-20.6c-14.4-13.8-21.6-33.8-21.6-60.1c0-33,10.9-58.5,32.7-76.5
		c21.8-18,61.5-28.8,119.2-32.3v-11.1c0-19.7-2-33.4-6-41c-4-7.6-11.7-11.4-23.2-11.4C2141,457,2129.4,472.1,2127.3,502.4z
		 M2191.1,562.9c-24,2.7-41.1,8-51.4,15.9c-10.2,7.9-15.4,21.2-15.4,39.8c0,24.9,9.2,37.3,27.5,37.3c10,0,19-5.6,27.1-16.8
		c8.1-11.2,12.1-31.8,12.1-61.7V562.9z"/>
	<path d="M2310.2,408.4h76.1v44.2c16.2-32,38.6-48,67.2-48c27.1,0,49.6,12,67.5,36.1c17.9,24.1,26.9,60.9,26.9,110.5
		c0,51.9-8.8,91-26.3,117.3s-42.2,39.5-73.9,39.5c-22.8,0-41.6-8.7-56.4-26v122h-81.1V408.4z M2391.3,583c0,28.2,2.3,46.6,6.8,55.1
		c4.6,8.5,13.8,12.7,27.8,12.7c12.4,0,21.7-5.6,27.7-16.9c6-11.3,9-38.7,9-82.1c0-36.2-2.6-60.8-7.9-73.6
		c-5.2-12.9-14.1-19.3-26.5-19.3c-10.3,0-19,4-26.2,12.1c-7.2,8.1-10.8,26.8-10.8,56.2V583z"/>
	<path d="M2799.5,570h-154.8v16.3c0,26.4,3.6,44.1,10.8,53.1c7.2,8.9,16.6,13.4,28.3,13.4c25.1,0,39.2-16.8,42.3-50.3l73.5,4.7
		c-13.1,68.7-52.1,103-117.2,103c-40.1,0-70.6-13.6-91.5-40.7c-20.9-27.1-31.3-63.4-31.3-108.9c0-51.3,11.1-90.5,33.2-117.5
		c22.1-27,51.8-40.5,89-40.5c33.5,0,61.5,12,84,35.8C2788.3,462.3,2799.5,506.2,2799.5,570z M2721.7,522.3c0.2-3.5,0.3-6.2,0.3-8.2
		c0-38-12.8-57.1-38.5-57.1c-25.3,0-38,21.8-38.2,65.3H2721.7z"/>
	<path d="M2823.8,408.4h72.6v71.4c13.1-50.1,36.4-75.2,69.9-75.2c4.1,0,8.8,0.5,14,1.5v80.5c-6-0.8-10.6-1.2-13.8-1.2
		c-40.2,0-60.3,30.4-60.3,91.3V704h-82.5V408.4z"/>
</g>
<g>
</g>
<g>
</g>
<g>
</g>
<g>
</g>
<g>
</g>
</svg>
